<?xml version="1.0" encoding="UTF-8"?><svg id="Capa_2" xmlns="http://www.w3.org/2000/svg" viewBox="0 0 103.74 87.63"><defs><style>.cls-1{fill:#fff;}</style></defs><g id="Capa_1-2"><g><path class="cls-1" d="M54.82,0c1.18,.13,2.35,.26,3.53,.4,3.48,.41,6.84,1.3,10.11,2.54,4.5,1.7,8.64,4.04,12.34,7.11,1.38,1.14,2.67,2.41,3.86,3.75,1.43,1.62,1.62,3.66,1.68,5.74,.07,2.76-.62,5.18-2.75,7.21-4.43-7.32-10.63-12.6-18.69-15.59-8.1-3-16.28-2.85-24.35,0-11.32,4-21.53,15.41-23.1,29.09,1.24,0,2.47-.03,3.71,0,1.05,.04,2.12,.06,3.14,.26,1.29,.24,1.6,.99,.92,2.09-2.52,4.05-5.06,8.08-7.62,12.1-.79,1.25-1.7,2.42-2.5,3.66-1.27,1.97-3.63,1.57-4.65,.03-2.25-3.38-4.52-6.74-6.73-10.14-1.22-1.88-2.33-3.82-3.45-5.76-.56-.97-.23-1.76,.86-1.95,1.05-.19,2.14-.25,3.21-.29,1.37-.05,2.74-.01,4.14-.01,.41-4.23,1.5-8.25,3.02-12.16,2.36-6.08,5.96-11.32,10.7-15.78C28.11,6.71,35.04,2.99,42.95,1.16c2.26-.52,4.6-.7,6.9-1.03C50.07,.1,50.28,.04,50.5,0h4.32Z"/><path class="cls-1" d="M86.37,47.57c-.42,0-.65,0-.89,0-1.66-.01-3.33-.02-4.99-.05-.4,0-.81-.06-1.2-.15-.94-.2-1.34-1.05-.84-1.91,1.34-2.28,2.67-4.56,4.1-6.78,2-3.11,4.07-6.17,6.15-9.23,.87-1.28,2.39-1.67,3.59-.96,.4,.24,.75,.64,1.01,1.05,3.37,5.15,6.7,10.34,10.1,15.47,.85,1.29-.03,2.52-1.41,2.52-1.93,0-3.87,.09-5.8,.12-.63,0-.93,.2-1.07,.89-.6,2.86-1.15,5.74-1.97,8.55-1.59,5.47-4.41,10.3-8.07,14.66-4.53,5.4-9.97,9.62-16.45,12.42-4.69,2.03-9.57,3.41-14.73,3.45-2.87,.02-5.76,.05-8.62-.17-4.16-.31-8.1-1.57-11.91-3.27-4.06-1.81-7.84-4.05-11.23-6.93-1.97-1.68-3.83-3.46-4.53-6.11-.99-3.76-.08-7.02,2.44-10.02,4.68,7.3,10.77,12.82,19.03,15.71,8.2,2.87,16.47,2.98,24.51-.26,13-5.24,20.3-15.16,22.78-28.99Z"/><path class="cls-1" d="M61.59,33.19c-.14,3.95-1.2,8.03-4.55,11.2-3.26,3.08-6.74,3.25-10.25,.45-.92-.73-1.75-1.64-2.43-2.6-3.37-4.73-3.58-12.28-.68-16.98,3.65-5.93,12.84-5.83,16.18,.4,.97,1.81,1.71,4.61,1.74,7.52Z"/><path class="cls-1" d="M72.09,59.94c.06,.59-.41,1.1-1,1.1h-3.62c-9.99,0-12.56,0-12.79,0-7.39,0-14.77,0-22.16,0-1.23,0-1.43-.17-1.32-1.41,.13-1.44,.28-2.89,.5-4.32,.26-1.65,1.47-2.98,3.07-3.47,3.15-.96,6-2.48,8.51-4.65,.55-.47,1.03-.42,1.63,.02,4.44,3.24,9.01,3.27,13.38,.04,.76-.56,1.28-.42,1.9,.1,1.84,1.54,3.81,2.88,6.08,3.71,.86,.31,1.73,.6,2.61,.84,1.46,.4,2.38,1.34,2.63,2.81,.24,1.44,.39,3.53,.57,5.25Z"/></g></g></svg>