<?xml version="1.0" encoding="UTF-8"?><svg id="Capa_2" xmlns="http://www.w3.org/2000/svg" viewBox="0 0 118.05 101.67"><defs><style>.cls-1{fill:#fff;}</style></defs><g id="Capa_1-2"><g><g><path class="cls-1" d="M3.44,101.67c-.34-.05-.68-.14-1.03-.14-.93,0-1.61-.52-2.23-1.1C.02,100.26,0,99.87,0,99.59c.04-11.65,.08-23.29,.13-34.94,0-1.6,.09-3.21,.15-4.81,.03-.79,.73-1.56,1.53-1.56,4.92-.02,9.83-.03,14.75,0,1.4,.01,1.92,.58,1.94,1.94,.08,4.92,.16,9.83,.18,14.75,.03,8.03,.02,16.07,.02,24.1,0,.46,.07,1.07-.19,1.35-.55,.59-1.24,1.09-2.15,1.09-.34,0-.68,.09-1.02,.14H3.44Zm5.85-31.79c1.69,0,3.17-1.45,3.19-3.14,.02-1.61-1.53-3.19-3.09-3.17-1.74,.02-3.12,1.47-3.14,3.27-.02,1.69,1.33,3.04,3.04,3.05Z"/><path class="cls-1" d="M23.02,79.78c0-4.7,0-9.39-.01-14.09,0-.56,.13-.92,.63-1.22,3.77-2.27,7.66-4.32,11.77-5.9,2.4-.92,4.9-.57,7.29,.23,9.7,3.26,17.53,7.2,27.89,5.45,2.57-.44,5.16-.8,7.75-1.09,6.33-.71,10.83,7.56,4.33,10.74-8.29,4.05-20.7,6.39-29.52,3.18-.71-.26-1.46-.56-2.21-.43s-1.42,.94-1.12,1.63c.19,.44,.67,.66,1.11,.83,6.41,2.53,13.55,2.82,20.35,1.75,14.1-2.22,26.52-9.35,39.13-15.55,1.89-.93,4.29-1.37,5.99-.14,1.7,1.22,2.04,3.76,1.17,5.65-1.56,3.37-7.12,6-10.05,8.15-4.03,2.95-8.09,5.87-12.28,8.59-8.07,5.25-16.72,9.95-26.13,12.25-9.59,2.34-21.53,.68-31.32-.14-1.53-.13-3.03-.6-4.54-.94-2.99-.67-5.97-1.39-8.97-2.02-.84-.17-1.11-.56-1.12-1.36-.06-5.19-.14-10.39-.22-15.58h.07Z"/></g><path class="cls-1" d="M47.74,29.29c-2.25-1.62-4.48-3.22-6.71-4.82-1.88-1.35-3.76-2.69-5.64-4.04-1.05-.75-1.41-1.68-1.07-2.73,.32-1,1.19-1.56,2.43-1.56,4.82,0,9.65-.01,14.47,.02,.62,0,.9-.15,1.1-.77,1.45-4.52,2.96-9.03,4.44-13.55C57.19,.59,57.91,0,59.05,0c1.1,0,1.82,.59,2.23,1.81,1.49,4.53,2.99,9.06,4.46,13.6,.18,.55,.4,.75,1,.75,4.88-.03,9.76-.02,14.65-.02,1.27,0,2.16,.66,2.4,1.82,.21,1.01-.18,1.79-1.01,2.38-3.71,2.66-7.42,5.32-11.12,7.99-.44,.32-1.08,.58-1.23,1.02-.14,.4,.24,.99,.4,1.49,1.42,4.31,2.84,8.62,4.25,12.93,.42,1.29-.12,2.51-1.3,2.94-.81,.3-1.57,.14-2.27-.37-3.7-2.67-7.41-5.33-11.13-7.99-.44-.32-.9-.84-1.36-.85-.43-.01-.87,.52-1.3,.83-3.66,2.63-7.32,5.26-10.98,7.88-1.11,.8-2.22,.84-3.07,.13-.76-.64-1-1.55-.65-2.61,1.47-4.5,2.95-8.99,4.43-13.49,.1-.3,.2-.59,.32-.95Z"/></g></g></svg>