<?xml version="1.0" encoding="UTF-8"?><svg id="Capa_2" xmlns="http://www.w3.org/2000/svg" viewBox="0 0 83.69 132.62"><defs><style>.cls-1{fill:#8cd50a;}</style></defs><g id="Capa_1-2"><path class="cls-1" d="M83.69,41.85C83.69,18.74,64.96,0,41.85,0S0,18.74,0,41.85c0,20.8,15.17,38.04,35.05,41.29l-2.09,42.62c-.19,3.88,3.02,7.07,6.89,6.86l4.7-.25c3.6-.19,6.36-3.26,6.18-6.86l-2.11-42.35c19.89-3.24,35.07-20.49,35.07-41.29Zm-41.85,30c-16.57,0-30-13.43-30-30S25.28,11.84,41.85,11.84s30,13.43,30,30-13.43,30-30,30Z"/></g></svg>