<?xml version="1.0" encoding="UTF-8"?><svg id="Capa_2" xmlns="http://www.w3.org/2000/svg" viewBox="0 0 41.16 65.22"><defs><style>.cls-1{fill:#fff;}</style></defs><g id="Capa_1-2"><path class="cls-1" d="M41.16,20.58C41.16,9.21,31.94,0,20.58,0S0,9.21,0,20.58c0,10.23,7.46,18.71,17.24,20.3l-1.03,20.96c-.09,1.91,1.48,3.47,3.39,3.37l2.31-.13c1.77-.1,3.13-1.6,3.04-3.37l-1.04-20.83c9.78-1.59,17.25-10.08,17.25-20.31Zm-20.58,14.75c-8.15,0-14.75-6.61-14.75-14.75S12.43,5.82,20.58,5.82s14.75,6.61,14.75,14.75-6.61,14.75-14.75,14.75Z"/></g></svg>