<?xml version="1.0" encoding="UTF-8"?><svg id="Capa_2" xmlns="http://www.w3.org/2000/svg" viewBox="0 0 140.22 152.6"><defs><style>.cls-1{fill:#8cd50a;}</style></defs><g id="Capa_1-2"><g><path class="cls-1" d="M70.33,152.58c-17.67,0-35.33,.03-53-.01-10.96-.03-17.21-5.95-17.24-16.88C-.03,100.53-.04,65.36,.1,30.2c.04-11.17,6.46-17.18,17.58-17.25,.83,0,1.67,0,2.5,0q8.14,0,9.12,7.97c.68,5.48,4.64,9.03,10.13,9.07,5.49,.04,9.8-3.9,10.36-9.46q.77-7.57,8.45-7.58c8.5,0,17.01,.24,25.5-.09,4.92-.19,6.73,1.28,6.74,6.44,.01,8.17,7.31,12.88,14.49,9.91,4.18-1.74,5.87-5.05,6.07-9.47,.3-6.77,.39-6.77,7.21-6.79,1.33,0,2.67,0,4,0,11.71,.05,17.91,6.16,17.93,17.91,.05,34.83,.05,69.66,0,104.5-.02,11.28-6.05,17.2-17.36,17.22-17.5,.04-35,0-52.5,0Zm.2-102.38c-17.5,0-35,.12-52.49-.08-4.58-.05-6.09,1.52-6.06,6.08,.16,26,.06,51.99,.09,77.99,0,6.29,.59,6.86,6.86,6.87,34.16,.02,68.33,.02,102.49,0,6.33,0,7.28-.93,7.29-7.21,.03-26-.07-52,.09-77.99,.03-4.41-1.45-5.77-5.77-5.73-17.5,.18-35,.08-52.49,.08Z"/><path class="cls-1" d="M32.05,13.54c0-2.33-.34-4.72,.08-6.97C32.89,2.57,35.34-.06,39.68,0c4.09,.06,6.57,2.6,7.18,6.39,.76,4.76,.74,9.65,0,14.42-.59,3.89-3.31,6.31-7.25,6.33-4.19,.02-6.84-2.53-7.51-6.64-.37-2.27-.07-4.64-.06-6.97Z"/><path class="cls-1" d="M108.28,13.59c0,2.16,.17,4.34-.04,6.48-.4,4.24-3,6.74-7.1,7.05-4.02,.31-6.7-2.07-7.52-5.91-1.08-5.07-1.01-10.27,0-15.35,.78-3.93,3.58-6.03,7.56-5.84,4.02,.19,6.38,2.73,6.97,6.59,.35,2.27,.06,4.64,.06,6.97h.05Z"/><path class="cls-1" d="M70.19,80.37c-.33,0-.67,.04-1,0-4.02-.58-9.38,2.06-11.82-1.59-2.96-4.44-1.18-10.35-1-15.64,.09-2.52,1.97-3.21,4.22-3.2,6.33,.02,12.66,.06,18.99-.01,3.26-.04,4.46,1.69,4.47,4.65,.01,3.67-.02,7.33,.02,11,.04,3.34-1.56,4.88-4.9,4.79-3-.08-6-.02-9-.02v.02Z"/><path class="cls-1" d="M70.28,85.83c2.99,0,5.99,.11,8.98-.02,3.45-.15,4.83,1.54,4.82,4.79-.03,18.54,2.03,15.46-14.51,15.57-14.41,.1-13.34,1.85-13.51-13.88-.06-4.96,1.73-7.06,6.74-6.51,2.47,.27,4.99,.05,7.48,.05Z"/><path class="cls-1" d="M70.18,131.58c-.67,0-1.34,.07-1.99-.01-3.69-.49-8.82,1.9-10.83-1.41-2.85-4.69-1.31-10.66-.82-16.09,.18-2.02,1.88-2.72,3.63-2.74,6.65-.09,13.31-.1,19.96-.06,2.66,.01,3.87,1.58,3.92,4.15,.01,.5,.05,1,.05,1.5-.08,17.61,1.54,14.33-13.92,14.67Z"/><path class="cls-1" d="M105.55,59.92c15.79,.27,13.45-2.46,13.82,14.15,.11,4.78-1.68,6.58-6.4,6.35-5.46-.27-10.94-.12-16.41-.07-3.32,.03-4.86-1.47-4.77-4.83,.09-3.48,.16-6.97-.02-10.44-.21-3.93,1.55-5.4,5.33-5.18,2.81,.16,5.64,.03,8.45,.03Z"/><path class="cls-1" d="M34.45,106.23c-15.33-.13-13.45,1.66-13.53-13.66-.03-6.5,.26-6.73,6.76-6.75,5.5-.02,10.99,.06,16.49,0,2.94-.03,4.29,1.27,4.2,4.21-.07,2.16,.01,4.33,.01,6.49q0,9.69-9.94,9.69c-1.33,0-2.66,0-4,0Z"/><path class="cls-1" d="M106.66,85.84c14.76,.28,12.33-2.57,12.71,14.18,.1,4.51-1.51,6.41-6.06,6.24-5.49-.21-10.99-.1-16.49-.05-3.54,.03-5.19-1.5-5.04-5.14,.15-3.66,.08-7.33,.03-10.99-.04-2.91,1.26-4.31,4.21-4.25,3.16,.06,6.33,.01,10.64,.01Z"/><path class="cls-1" d="M34.57,131.58c-2.5,0-5.01-.19-7.49,.04-4.46,.41-6.33-1.23-6.23-5.91,.34-16.55-1.94-14.46,14.23-14.52,15.41-.06,13.16-1.14,13.3,12.28,.08,8.1,0,8.1-8.31,8.11-1.83,0-3.66,0-5.5,0Z"/></g></g></svg>