<?xml version="1.0" encoding="UTF-8"?><svg id="Capa_2" xmlns="http://www.w3.org/2000/svg" viewBox="0 0 144.92 109.07"><defs><style>.cls-1{fill:#febb2e;}.cls-2{fill:#8cd50a;}</style></defs><g id="Capa_1-2"><path class="cls-1" d="M26.97,60.42h0c0-24.62,19.96-44.58,44.58-44.58h28.81C93.66,6.27,82.57,0,70,0H37C16.57,0,0,16.57,0,37H0c0,17.62,12.31,32.35,28.8,36.08-1.19-4.01-1.83-8.26-1.83-12.65Z"/><path class="cls-2" d="M107.92,23.42h-33c-20.43,0-37,16.57-37,37h0c0,20.43,16.57,37,37,37h16.5l-4.03,8.46c-.96,2.02,1.34,4.04,3.22,2.82l17.31-11.27c20.43,0,37-16.57,37-37h0c0-20.43-16.57-37-37-37Zm-40.62,42.82c-3.58,0-6.48-2.9-6.48-6.48s2.9-6.48,6.48-6.48,6.48,2.9,6.48,6.48-2.9,6.48-6.48,6.48Zm24.12,0c-3.58,0-6.48-2.9-6.48-6.48s2.9-6.48,6.48-6.48,6.48,2.9,6.48,6.48-2.9,6.48-6.48,6.48Zm24.12,0c-3.58,0-6.48-2.9-6.48-6.48s2.9-6.48,6.48-6.48,6.48,2.9,6.48,6.48-2.9,6.48-6.48,6.48Z"/></g></svg>