<?xml version="1.0" encoding="UTF-8"?><svg id="Capa_2" xmlns="http://www.w3.org/2000/svg" viewBox="0 0 90.79 90.79"><defs><style>.cls-1{fill:#fff;}</style></defs><g id="Capa_1-2"><path class="cls-1" d="M63.07,45.4l24.06-24.06c4.88-4.88,4.88-12.79,0-17.67h0c-4.88-4.88-12.79-4.88-17.67,0l-24.06,24.06L21.33,3.66C16.45-1.22,8.54-1.22,3.66,3.66s-4.88,12.79,0,17.67l24.06,24.06L3.66,69.46c-4.88,4.88-4.88,12.79,0,17.67h0c4.88,4.88,12.79,4.88,17.67,0l24.06-24.06,24.06,24.06c4.88,4.88,12.79,4.88,17.67,0h0c4.88-4.88,4.88-12.79,0-17.67l-24.06-24.06Z"/></g></svg>