<?xml version="1.0" encoding="UTF-8"?><svg id="Capa_2" xmlns="http://www.w3.org/2000/svg" viewBox="0 0 126.96 119.09"><defs><style>.cls-1{fill:#fff;}.cls-2{fill:#febb2e;}.cls-3{fill:#8cd50a;}</style></defs><g id="Capa_1-2"><g><g><path class="cls-3" d="M105.58,80.93c-2.49-1.89-4.94-3.79-7.44-5.65-5.04-3.73-10.05-7.51-15.17-11.13-4.4-3.12-9.06-5.83-13.99-8.03-1.17-.52-2.36-1.03-3.58-1.43-.52-.17-10.76,1.71-11.75,3.27-1.5,2.39-3.08,5.39-5.52,6.92-2.29,1.43-5.07,.87-7.66,.03-.81-.26-.94-.56-.59-1.32,1.54-3.42,3-6.88,4.67-10.24,1.03-2.07,2.61-3.67,4.9-4.52,4.63-1.72,9.32-3.24,14.18-4.13,3.24-.6,6.5-1.18,9.82-.95,3.08,.21,5.99,1.17,8.85,2.25,4.21,1.6,8.49,1.92,12.87,.81,.16-.04,.31-.08,.46-.13,1.61-.5,1.59-.48,2.42,.96,3.35,5.8,6.72,11.59,10.08,17.39,1.53,2.64,3.06,5.29,4.6,7.93,.25,.43,.3,.74-.05,1.2-1.67,2.16-3.57,4.06-5.73,5.72-.44,.34-.89,.67-1.38,1.04Z"/><path class="cls-3" d="M126.95,22.37v.9c0,14.01,0,28.02,0,42.02,0,1.23-.02,2.47,0,3.7,.01,.52-.09,.83-.62,1.12-2.13,1.18-4.21,2.45-6.32,3.67-1.14,.66-1.95,.28-2.56-.88-.97-1.85-2.07-3.63-3.12-5.43-2.38-4.1-4.76-8.2-7.16-12.29-1.78-3.02-3.59-6.03-5.39-9.04-1.08-1.81-2.15-3.63-3.22-5.45-.79-1.34-.61-2.08,.74-2.85,2.77-1.58,5.55-3.13,8.33-4.69,6.24-3.5,12.48-7,18.73-10.49,.14-.08,.28-.14,.58-.3Z"/><path class="cls-2" d="M.05,22.53c1.5,.83,2.93,1.61,4.34,2.41,4.81,2.7,9.63,5.41,14.44,8.11,2.85,1.6,5.7,3.2,8.55,4.81,1.29,.73,1.52,1.4,.77,2.71-1.74,3.05-3.56,6.05-5.32,9.09-2.95,5.1-5.88,10.22-8.82,15.32-1.39,2.41-2.78,4.83-4.18,7.24-.24,.42-.5,.83-.8,1.2-.65,.77-1.41,.91-2.28,.41-2.04-1.17-4.07-2.38-6.12-3.54C.15,70.01,0,69.68,0,69.13c.01-15.27,.01-30.54,.01-45.81,0-.23,.02-.46,.04-.8Z"/><path class="cls-3" d="M46.98,105.42h9.51c2.79,0,5.05,2.26,5.05,5.05h0c0,2.79-2.26,5.05-5.05,5.05h-9.51c-2.79,0-5.05-2.26-5.05-5.05h0c0-2.79,2.26-5.05,5.05-5.05Z" transform="translate(-65.29 76.05) rotate(-48.51)"/><path class="cls-3" d="M35.81,97.44h12.23c2.79,0,5.05,2.26,5.05,5.05h0c0,2.79-2.26,5.05-5.05,5.05h-12.23c-2.79,0-5.05-2.26-5.05-5.05h0c0-2.79,2.26-5.05,5.05-5.05Z" transform="translate(-62.63 66) rotate(-48.51)"/><path class="cls-3" d="M18.73,82.78h7.45c2.79,0,5.05,2.26,5.05,5.05h0c0,2.79-2.26,5.05-5.05,5.05h-7.45c-2.79,0-5.05-2.26-5.05-5.05h0c0-2.79,2.26-5.05,5.05-5.05Z" transform="translate(-58.22 46.47) rotate(-48.51)"/><path class="cls-3" d="M24.81,88.77h16.21c2.79,0,5.05,2.26,5.05,5.05h0c0,2.79-2.26,5.05-5.05,5.05H24.81c-2.79,0-5.05-2.26-5.05-5.05h0c0-2.79,2.26-5.05,5.05-5.05Z" transform="translate(-59.18 56.32) rotate(-48.51)"/><path class="cls-2" d="M103.54,84.28c-1.49-1.09-2.97-2.2-4.44-3.33-6.77-5.17-13.46-10.47-20.63-15.1-4.17-2.69-8.48-5.14-13.1-6.98-.3-.12-8.39,1.27-8.7,1.7-1.43,1.99-3.02,3.83-4.93,5.38-4.15,3.34-8.68,4.37-13.75,2.27-1.33-.55-2.03-1.5-2-2.9,.02-.93,.1-1.9,.41-2.77,1.65-4.65,3.44-9.23,6.2-13.36,.07-.11,.13-.22,.24-.41-4.07-.77-8-1.78-11.34-4.4-.84,1.6-1.56,3.06-2.37,4.47-3.2,5.55-6.46,11.06-9.66,16.61-1.88,3.25-3.7,6.53-5.52,9.8-.13,.23-.21,.66-.09,.84,1.39,1.97,2.82,3.9,4.26,5.87,2.06-2.06,4.2-4.23,7.17-4.21,3.11,.02,5.42,2.36,6.77,5.16,1.01-1.22,2.12-2.2,3.61-2.54,2.49-.58,5.23,.11,7.26,1.68,2.67,2.07,2.74,4.68,2.44,7.76-.02,.19,1.65,.33,1.82,.35,.55,.05,.93,.11,1.44,.35,.97,.47,1.87,1.11,2.64,1.86,1.51,1.46,2.67,3.47,2.66,5.62,0,.37-.25,.87-.1,1.04,.14,.16,.32,.09,.5,.09,5.1,0,8.86,6.06,7.56,10.74-.34,1.23-1.12,2.33-1.74,3.57,2.93,1.29,6.03,2.36,9.31,2.85,2,.3,4,.35,5.97-.32,1.49-.5,2.61-1.46,3.53-2.68,.61-.81,.46-1.26-.47-1.73-1.31-.67-2.62-1.35-3.94-2.01-2.44-1.24-4.89-2.44-7.31-3.72-.5-.26-.98-.69-1.27-1.16-.44-.71-.19-1.57,.45-2.19,.62-.61,1.43-.74,2.3-.3,.9,.46,1.8,.92,2.71,1.37l11.59,6.1c1.98,1.04,4.43,.28,5.47-1.7l.02-.04c.45-.86,.55-1.8,.37-2.68v-.03c.02-.07,0-.15-.05-.23-.28-1.05-.98-1.98-2.01-2.53l-11.87-6.25c-.8-.5-1.62-1-2.49-1.51-.2-.12-.41-.26-.56-.44-.63-.73-.65-1.78-.08-2.52,.61-.79,1.58-.99,2.52-.45,2.74,1.58,5.47,3.18,8.2,4.78,2.57,1.5,5.18,2.93,7.69,4.52,.29,.18,.58,.33,.87,.45l1.23,.75c1.91,1.16,4.41,.55,5.57-1.36l.02-.04c1.16-1.91,.55-4.41-1.36-5.57l-15.31-9.3c-.93-.58-1.87-1.16-2.8-1.74-1.25-.78-1.6-1.94-.96-2.91,.7-1.05,1.84-1.21,3.1-.41,.77,.49,1.54,.98,2.31,1.46,4.93,3.04,9.87,6.06,14.77,9.15,1.29,.81,2.54,1.23,4.08,.9,1.76-.37,3.02-1.4,3.42-3.08,.42-1.78-.21-3.56-1.6-4.58Z"/></g><circle class="cls-3" cx="63.48" cy="19.76" r="19.76"/><path class="cls-1" d="M75.91,13.33l-2.06-2.06c-.33-.33-.87-.33-1.2,0l-11.55,11.55c-.33,.33-.87,.33-1.2,0l-4.29-4.29c-.33-.33-.87-.33-1.2,0l-2.06,2.06c-.33,.33-.33,.87,0,1.2l8.13,8.13,.02-.02,.02,.02,15.4-15.4c.33-.33,.33-.87,0-1.2Z"/></g></g></svg>