<?xml version="1.0" encoding="UTF-8"?><svg id="Capa_2" xmlns="http://www.w3.org/2000/svg" viewBox="0 0 117.45 120.45"><defs><style>.cls-1{fill:#febb2e;}.cls-2{fill:#8cd50a;}</style></defs><g id="Capa_1-2"><g><path class="cls-2" d="M47.44,29.29c-2.25-1.62-4.48-3.22-6.71-4.82-1.88-1.35-3.76-2.69-5.64-4.04-1.05-.75-1.41-1.68-1.07-2.73,.32-1,1.19-1.56,2.43-1.56,4.82,0,9.65-.01,14.47,.02,.62,0,.9-.15,1.1-.77,1.45-4.52,2.96-9.03,4.44-13.55C56.89,.59,57.61,0,58.74,0c1.1,0,1.82,.59,2.23,1.81,1.49,4.53,2.99,9.06,4.46,13.6,.18,.55,.4,.75,1,.75,4.88-.03,9.76-.02,14.65-.02,1.27,0,2.16,.66,2.4,1.82,.21,1.01-.18,1.79-1.01,2.38-3.71,2.66-7.42,5.32-11.12,7.99-.44,.32-1.08,.58-1.23,1.02-.14,.4,.24,.99,.4,1.49,1.42,4.31,2.84,8.62,4.25,12.93,.42,1.29-.12,2.51-1.3,2.94-.81,.3-1.57,.14-2.27-.37-3.7-2.67-7.41-5.33-11.13-7.99-.44-.32-.9-.84-1.36-.85-.43-.01-.87,.52-1.3,.83-3.66,2.63-7.32,5.26-10.98,7.88-1.11,.8-2.22,.84-3.07,.13-.76-.64-1-1.55-.65-2.61,1.47-4.5,2.95-8.99,4.43-13.49,.1-.3,.2-.59,.32-.95Z"/><rect class="cls-2" y="101.81" width="117.45" height="18.65" rx="2.48" ry="2.48"/><path class="cls-2" d="M42.58,51.76h32.26c1.02,0,1.85,.83,1.85,1.85v45.16H40.73V53.61c0-1.02,.83-1.85,1.85-1.85Z"/><path class="cls-1" d="M111.89,98.78h-31.34v-28.19h29.26c1.15,0,2.08,.93,2.08,2.08v26.11Z"/><path class="cls-1" d="M5.53,98.78h31.34v-28.19H7.61c-1.15,0-2.08,.93-2.08,2.08v26.11Z"/></g></g></svg>