<?xml version="1.0" encoding="UTF-8"?><svg id="Capa_2" xmlns="http://www.w3.org/2000/svg" viewBox="0 0 138.03 105.16"><defs><style>.cls-1{fill:#febb2e;}.cls-2{fill:#8cd50a;}</style></defs><g id="Capa_1-2"><g><path class="cls-2" d="M114.79,63.67c-2.7-2.05-5.37-4.13-8.09-6.14-5.48-4.06-10.93-8.16-16.49-12.1-4.78-3.39-9.85-6.34-15.21-8.73-1.28-.57-2.57-1.12-3.89-1.55-.56-.18-11.7,1.86-12.77,3.56-1.63,2.6-3.35,5.87-6,7.52-2.49,1.56-5.52,.94-8.33,.03-.88-.29-1.02-.6-.64-1.43,1.68-3.72,3.26-7.48,5.07-11.13,1.12-2.25,2.84-3.99,5.33-4.91,5.04-1.87,10.13-3.52,15.42-4.49,3.52-.65,7.07-1.28,10.68-1.03,3.35,.23,6.51,1.27,9.62,2.45,4.58,1.74,9.23,2.09,13.99,.88,.17-.04,.34-.09,.51-.14,1.75-.54,1.73-.53,2.64,1.04,3.64,6.31,7.3,12.6,10.96,18.9,1.67,2.87,3.33,5.75,5,8.62,.27,.47,.33,.8-.06,1.3-1.81,2.34-3.88,4.42-6.23,6.22-.48,.37-.97,.73-1.5,1.13Z"/><path class="cls-2" d="M138.02,0V.98c0,15.23,0,30.46,0,45.69,0,1.34-.02,2.68,0,4.02,.01,.57-.1,.9-.67,1.22-2.32,1.28-4.58,2.66-6.87,3.99-1.24,.72-2.12,.31-2.78-.96-1.05-2.01-2.25-3.94-3.39-5.91-2.59-4.45-5.17-8.91-7.79-13.36-1.93-3.29-3.91-6.55-5.86-9.83-1.17-1.97-2.34-3.95-3.5-5.93-.85-1.45-.66-2.26,.8-3.1,3.01-1.72,6.03-3.41,9.05-5.1,6.78-3.8,13.57-7.61,20.36-11.41,.15-.08,.31-.16,.63-.32Z"/><path class="cls-1" d="M.05,.17c1.63,.9,3.18,1.75,4.72,2.62,5.23,2.94,10.47,5.88,15.7,8.82,3.1,1.74,6.2,3.47,9.29,5.23,1.4,.8,1.65,1.52,.84,2.95-1.89,3.31-3.87,6.58-5.78,9.88-3.21,5.55-6.4,11.11-9.59,16.66-1.51,2.63-3.02,5.25-4.54,7.87-.26,.45-.54,.91-.87,1.3-.7,.84-1.54,.99-2.48,.44-2.22-1.28-4.42-2.59-6.65-3.85C.16,51.8,0,51.44,0,50.84,.02,34.24,.01,17.64,.01,1.04c0-.25,.02-.5,.04-.87Z"/><rect class="cls-2" x="45.58" y="90.29" width="21.33" height="10.99" rx="5.5" ry="5.5" transform="translate(-52.77 74.47) rotate(-48.51)"/><rect class="cls-2" x="33.44" y="81.62" width="24.28" height="10.99" rx="5.5" ry="5.5" transform="translate(-49.87 63.55) rotate(-48.51)"/><rect class="cls-2" x="14.87" y="65.68" width="19.09" height="10.99" rx="5.5" ry="5.5" transform="translate(-45.08 42.31) rotate(-48.51)"/><rect class="cls-2" x="21.47" y="72.2" width="28.61" height="10.99" rx="5.5" ry="5.5" transform="translate(-46.12 53.03) rotate(-48.51)"/><path class="cls-1" d="M112.56,67.31c-1.62-1.19-3.23-2.39-4.83-3.62-7.36-5.63-14.64-11.38-22.43-16.41-4.53-2.93-9.22-5.58-14.24-7.59-.32-.13-9.12,1.38-9.46,1.85-1.56,2.16-3.28,4.17-5.36,5.85-4.52,3.64-9.44,4.76-14.94,2.46-1.45-.6-2.2-1.63-2.17-3.15,.02-1.01,.11-2.07,.45-3.01,1.79-5.05,3.73-10.04,6.75-14.53,.08-.11,.14-.24,.26-.45-4.43-.83-8.7-1.93-12.33-4.79-.92,1.73-1.69,3.33-2.58,4.86-3.48,6.03-7.02,12.03-10.5,18.06-2.04,3.53-4.02,7.1-6,10.66-.14,.25-.23,.72-.09,.91,1.51,2.14,3.07,4.24,4.63,6.38,2.24-2.24,4.57-4.6,7.79-4.58,3.38,.02,5.89,2.56,7.36,5.61,1.09-1.33,2.31-2.39,3.92-2.76,2.71-.63,5.68,.12,7.89,1.83,2.91,2.25,2.98,5.09,2.65,8.43-.02,.21,1.79,.36,1.98,.38,.6,.05,1.02,.12,1.57,.38,1.06,.51,2.03,1.2,2.87,2.02,1.64,1.59,2.9,3.78,2.89,6.11,0,.4-.27,.95-.11,1.13,.16,.17,.35,.09,.54,.09,5.55,0,9.63,6.59,8.22,11.67-.37,1.33-1.22,2.53-1.89,3.88,3.18,1.4,6.56,2.57,10.12,3.1,2.18,.33,4.35,.38,6.49-.35,1.62-.55,2.84-1.59,3.84-2.91,.66-.88,.49-1.37-.51-1.88-1.43-.73-2.85-1.46-4.28-2.19-2.65-1.34-5.32-2.66-7.95-4.04-.54-.28-1.07-.75-1.38-1.26-.48-.77-.21-1.7,.48-2.38,.68-.66,1.55-.8,2.5-.32,.98,.5,1.96,1,2.94,1.49l12.6,6.64c2.15,1.13,4.82,.31,5.95-1.85l.02-.04c.49-.93,.59-1.96,.4-2.92v-.04c.03-.08,0-.16-.06-.25-.31-1.14-1.06-2.16-2.19-2.75l-12.91-6.79c-.87-.54-1.76-1.08-2.71-1.64-.22-.13-.44-.29-.61-.48-.68-.79-.71-1.93-.08-2.74,.66-.85,1.72-1.08,2.74-.49,2.98,1.71,5.95,3.46,8.92,5.19,2.79,1.63,5.64,3.18,8.36,4.91,.31,.2,.63,.35,.95,.49l1.33,.81c2.08,1.26,4.79,.6,6.05-1.48l.03-.04c1.26-2.08,.6-4.79-1.48-6.05l-16.64-10.11c-1.02-.63-2.03-1.26-3.04-1.89-1.36-.85-1.74-2.11-1.04-3.16,.76-1.15,2-1.31,3.37-.45,.84,.53,1.67,1.06,2.52,1.59,5.35,3.31,10.73,6.59,16.06,9.94,1.4,.88,2.76,1.34,4.44,.98,1.92-.41,3.28-1.52,3.72-3.35,.46-1.94-.23-3.87-1.74-4.98Z"/></g></g></svg>