<?xml version="1.0" encoding="UTF-8"?><svg id="Capa_2" xmlns="http://www.w3.org/2000/svg" viewBox="0 0 98.32 109.31"><defs><style>.cls-1{fill:#fff;}.cls-2{fill:#febb2e;}.cls-3{fill:#8cd50a;}</style></defs><g id="Capa_1-2"><g><path class="cls-3" d="M68.27,0c1.96,.94,2.66,2.51,2.53,4.64-.11,1.79,0,3.59-.03,5.38-.02,2.2-1.48,3.76-3.47,3.75-2.01-.01-3.4-1.55-3.41-3.79,0-1.83,.09-3.67-.03-5.5-.14-2.12,.62-3.61,2.57-4.48h1.84Z"/><path class="cls-2" d="M38.6,16.52c14.27,14.27,28.46,28.46,42.73,42.75-12.95,2.4-24.27,8.25-34.23,16.62-8.3-8.31-16.59-16.61-24.94-24.97,8.31-9.93,14.01-21.35,16.44-34.4Z"/><path class="cls-3" d="M44.32,78.15c-1.21,1.17-2.48,2.39-3.72,3.63-4.3,4.29-8.59,8.61-12.9,12.89-4.51,4.48-10.71,4.48-15.21,0-3.07-3.04-6.12-6.1-9.17-9.17-4.42-4.45-4.43-10.69-.02-15.13,5.55-5.59,11.12-11.15,16.61-16.64,8.12,8.12,16.19,16.19,24.41,24.41Zm-19.78-8.53c-.4,.19-1.27,.4-1.85,.93-1.77,1.63-3.47,3.34-5.13,5.09-1.25,1.32-1.17,3.41,.06,4.69,1.25,1.3,3.31,1.48,4.66,.23,1.82-1.69,3.58-3.46,5.27-5.27,.96-1.03,1.11-2.32,.51-3.63-.6-1.31-1.67-1.93-3.52-2.03Z"/><path class="cls-3" d="M37.31,7.91c.13-2.6,1.35-4.79,3.95-6.02,2.58-1.22,5.05-.85,7.32,.88,.24,.18,.46,.4,.68,.62,15.15,15.15,30.29,30.29,45.44,45.44,1.8,1.8,2.61,3.92,2.09,6.46-1.02,5.01-6.93,7.2-10.96,4.05-.45-.35-.86-.76-1.26-1.17-14.91-14.9-29.8-29.81-44.72-44.7-1.5-1.5-2.46-3.19-2.53-5.57Z"/><path class="cls-3" d="M51.04,89.1c1.74-1.69,3.51-3.26,5.1-5.01,1.22-1.33,1.02-3.2-.31-4.56-1.31-1.34-2.68-2.61-4.2-4.08,1.95-1.49,3.76-2.86,5.74-4.37,1.71,1.96,3.61,3.69,4.96,5.78,2.46,3.8,1.85,8.75-1.27,12.09-1.59,1.7-3.35,3.23-4.97,4.77,1.38,1.45,2.56,2.68,3.74,3.93,1.99,2.11,2.49,5.05,1.3,7.65-1.17,2.56-3.7,4.12-6.54,4.01-1.62-.07-3.09-.61-4.26-1.74-5.29-5.09-10.56-10.2-15.76-15.22,3.23-3.24,6.44-6.45,9.73-9.74l6.74,6.5Z"/><path class="cls-3" d="M77.45,17.07c.42-.78,.7-1.7,1.29-2.32,2.18-2.3,4.45-4.53,6.71-6.75,1.48-1.45,3.56-1.47,4.94-.11,1.38,1.36,1.41,3.44-.04,4.93-2.24,2.3-4.52,4.57-6.81,6.81-1.08,1.05-2.39,1.32-3.81,.73-1.28-.53-2.06-1.77-2.28-3.29Z"/><path class="cls-3" d="M91.45,27.55c1.14,0,2.29-.03,3.43,0,1.94,.06,3.43,1.58,3.43,3.43,0,1.86-1.49,3.4-3.43,3.43-2.33,.04-4.65,.05-6.98,0-1.94-.04-3.38-1.59-3.35-3.48,.02-1.84,1.46-3.31,3.35-3.37,1.18-.04,2.36,0,3.55,0Z"/><path class="cls-1" d="M24.54,69.62c1.85,.1,2.92,.72,3.52,2.03,.6,1.31,.46,2.6-.51,3.63-1.7,1.82-3.45,3.58-5.27,5.27-1.35,1.25-3.41,1.07-4.66-.23-1.23-1.27-1.31-3.37-.06-4.69,1.66-1.75,3.35-3.47,5.13-5.09,.58-.53,1.45-.74,1.85-.93Z"/></g></g></svg>