<?xml version="1.0" encoding="UTF-8"?><svg id="Capa_2" xmlns="http://www.w3.org/2000/svg" viewBox="0 0 86.32 96.83"><defs><style>.cls-1{fill:#fff;}</style></defs><g id="Capa_1-2"><g><path class="cls-1" d="M19.65,79.23V21.88c0-1.98-1.6-3.58-3.58-3.58H3.58c-1.98,0-3.58,1.6-3.58,3.58V93.25c0,1.98,1.6,3.58,3.58,3.58H59.06c1.98,0,3.58-1.6,3.58-3.58v-6.85c0-1.98-1.6-3.58-3.58-3.58H23.23c-1.98,0-3.58-1.6-3.58-3.58Z"/><path class="cls-1" d="M62.57,31.01h23.74L58.99,0V27.43c0,1.98,1.6,3.58,3.58,3.58Z"/><path class="cls-1" d="M62.57,35.12c-4.24,0-7.69-3.45-7.69-7.69V0H27.25c-1.98,0-3.58,1.6-3.58,3.58V74.95c0,1.98,1.6,3.58,3.58,3.58h55.48c1.98,0,3.58-1.6,3.58-3.58V35.12h-23.74Zm8.38,29.07h-31.92c-1.83,0-3.31-1.48-3.31-3.31s1.48-3.31,3.31-3.31h31.92c1.83,0,3.31,1.48,3.31,3.31s-1.48,3.31-3.31,3.31Zm0-15.27h-31.92c-1.83,0-3.31-1.48-3.31-3.31s1.48-3.31,3.31-3.31h31.92c1.83,0,3.31,1.48,3.31,3.31s-1.48,3.31-3.31,3.31Z"/></g></g></svg>