<?xml version="1.0" encoding="UTF-8"?><svg id="Capa_2" xmlns="http://www.w3.org/2000/svg" viewBox="0 0 118.05 118.78"><defs><style>.cls-1{fill:#febb2e;}.cls-2{fill:#8cd50a;}</style></defs><g id="Capa_1-2"><g><g><path class="cls-2" d="M3.44,118.78c-.34-.05-.68-.14-1.03-.14-.93,0-1.61-.52-2.23-1.1C.02,117.37,0,116.99,0,116.71c.04-11.65,.08-23.29,.13-34.94,0-1.6,.09-3.21,.15-4.81,.03-.79,.73-1.56,1.53-1.56,4.92-.02,9.83-.03,14.75,0,1.4,.01,1.92,.58,1.94,1.94,.08,4.92,.16,9.83,.18,14.75,.03,8.03,.02,16.07,.02,24.1,0,.46,.07,1.07-.19,1.35-.55,.59-1.24,1.09-2.15,1.09-.34,0-.68,.09-1.02,.14H3.44Zm5.85-31.79c1.69,0,3.17-1.45,3.19-3.14,.02-1.61-1.53-3.19-3.09-3.17-1.74,.02-3.12,1.47-3.14,3.27-.02,1.69,1.33,3.04,3.04,3.05Z"/><path class="cls-2" d="M23.02,96.9c0-4.7,0-9.39-.01-14.09,0-.56,.13-.92,.63-1.22,3.77-2.27,7.66-4.32,11.77-5.9,2.4-.92,4.9-.57,7.29,.23,9.7,3.26,17.53,7.2,27.89,5.45,2.57-.44,5.16-.8,7.75-1.09,6.33-.71,10.83,7.56,4.33,10.74-8.29,4.05-20.7,6.39-29.52,3.18-.71-.26-1.46-.56-2.21-.43s-1.42,.94-1.12,1.63c.19,.44,.67,.66,1.11,.83,6.41,2.53,13.55,2.82,20.35,1.75,14.1-2.22,26.52-9.35,39.13-15.55,1.89-.93,4.29-1.37,5.99-.14,1.7,1.22,2.04,3.76,1.17,5.65-1.56,3.37-7.12,6-10.05,8.15-4.03,2.95-8.09,5.87-12.28,8.59-8.07,5.25-16.72,9.95-26.13,12.25-9.59,2.34-21.53,.68-31.32-.14-1.53-.13-3.03-.6-4.54-.94-2.99-.67-5.97-1.39-8.97-2.02-.84-.17-1.11-.56-1.12-1.36-.06-5.19-.14-10.39-.22-15.58h.07Z"/></g><g><rect class="cls-1" x="64.47" y="5.06" width="6.21" height="53.59"/><rect class="cls-1" x="23.9" y="14.71" width="21.72" height="3" transform="translate(9.21 44.82) rotate(-73.24)"/><rect class="cls-1" x="40.41" y="5.35" width="3" height="21.72" transform="translate(-2.89 12.77) rotate(-16.75)"/><rect class="cls-1" x="81.93" y="14.71" width="21.72" height="3" transform="translate(50.51 100.39) rotate(-73.24)"/><rect class="cls-1" x="98.45" y="5.35" width="3" height="21.72" transform="translate(-.43 29.5) rotate(-16.75)"/><path class="cls-2" d="M82.84,50.47v-6.35c0-.89-.72-1.6-1.6-1.6h-27.32c-.89,0-1.6,.72-1.6,1.6v6.35c0,.89-.72,1.6-1.6,1.6h-4.52c-.89,0-1.6,.72-1.6,1.6v11.77c0,.89,.72,1.6,1.6,1.6h42.76c.89,0,1.6-.72,1.6-1.6v-11.77c0-.89-.72-1.6-1.6-1.6h-4.52c-.89,0-1.6-.72-1.6-1.6Z"/><rect class="cls-1" x="65.22" y="-21.73" width="4.7" height="53.59" transform="translate(72.64 -62.51) rotate(90)"/><circle class="cls-1" cx="96.37" cy="5.81" r="5.81"/><circle class="cls-1" cx="38.78" cy="5.81" r="5.81"/><circle class="cls-1" cx="67.57" cy="5.81" r="5.81"/><path class="cls-2" d="M84.53,24.13h23.67v.42c0,6.53-5.3,11.84-11.84,11.84h0c-6.53,0-11.84-5.3-11.84-11.84v-.42h0Z"/><path class="cls-2" d="M26.94,24.13h23.67v.42c0,6.53-5.3,11.84-11.84,11.84h0c-6.53,0-11.84-5.3-11.84-11.84v-.42h0Z"/></g></g></g></svg>