<?xml version="1.0" encoding="UTF-8"?><svg id="Capa_2" xmlns="http://www.w3.org/2000/svg" viewBox="0 0 118.05 121.09"><defs><style>.cls-1{fill:#febb2e;}.cls-2{fill:#8cd50a;}</style></defs><g id="Capa_1-2"><g><path class="cls-1" d="M65.23,0c.96,.11,1.91,.21,2.87,.32,2.83,.34,5.56,1.06,8.22,2.06,3.66,1.38,7.02,3.29,10.03,5.78,1.12,.93,2.17,1.96,3.13,3.05,1.16,1.31,1.32,2.97,1.36,4.67,.06,2.25-.5,4.21-2.23,5.86-3.6-5.95-8.64-10.24-15.19-12.67-6.59-2.44-13.23-2.32-19.79,0-9.2,3.25-17.5,12.53-18.77,23.64,1.01,0,2.01-.03,3.01,0,.85,.03,1.72,.05,2.56,.21,1.05,.2,1.3,.81,.75,1.7-2.05,3.29-4.11,6.57-6.19,9.84-.64,1.01-1.38,1.97-2.03,2.98-1.03,1.6-2.95,1.28-3.78,.02-1.83-2.75-3.68-5.48-5.47-8.25-.99-1.53-1.89-3.11-2.81-4.68-.46-.78-.19-1.43,.7-1.58,.86-.15,1.74-.2,2.61-.23,1.11-.04,2.22,0,3.37,0,.33-3.44,1.22-6.71,2.45-9.88,1.92-4.94,4.84-9.2,8.69-12.83,4.81-4.53,10.44-7.56,16.87-9.04,1.84-.42,3.74-.57,5.61-.84,.18-.03,.35-.07,.53-.1h3.51Z"/><path class="cls-2" d="M3.44,121.09c-.34-.05-.68-.14-1.03-.14-.93,0-1.61-.52-2.23-1.1C.02,119.68,0,119.29,0,119.01c.04-11.65,.08-23.29,.13-34.94,0-1.6,.09-3.21,.15-4.81,.03-.79,.73-1.56,1.53-1.56,4.92-.02,9.83-.03,14.75,0,1.4,.01,1.92,.58,1.94,1.94,.08,4.92,.16,9.83,.18,14.75,.03,8.03,.02,16.07,.02,24.1,0,.46,.07,1.07-.19,1.35-.55,.59-1.24,1.09-2.15,1.09-.34,0-.68,.09-1.02,.14H3.44Zm5.85-31.79c1.69,0,3.17-1.45,3.19-3.14,.02-1.61-1.53-3.19-3.09-3.17-1.74,.02-3.12,1.47-3.14,3.27-.02,1.69,1.33,3.04,3.04,3.05Z"/><path class="cls-2" d="M23.02,99.2c0-4.7,0-9.39-.01-14.09,0-.56,.13-.92,.63-1.22,3.77-2.27,7.66-4.32,11.77-5.9,2.4-.92,4.9-.57,7.29,.23,9.7,3.26,17.53,7.2,27.89,5.45,2.57-.44,5.16-.8,7.75-1.09,6.33-.71,10.83,7.56,4.33,10.74-8.29,4.05-20.7,6.39-29.52,3.18-.71-.26-1.46-.56-2.21-.43s-1.42,.94-1.12,1.63c.19,.44,.67,.66,1.11,.83,6.41,2.53,13.55,2.82,20.35,1.75,14.1-2.22,26.52-9.35,39.13-15.55,1.89-.93,4.29-1.37,5.99-.14,1.7,1.22,2.04,3.76,1.17,5.65-1.56,3.37-7.12,6-10.05,8.15-4.03,2.95-8.09,5.87-12.28,8.59-8.07,5.25-16.72,9.95-26.13,12.25-9.59,2.34-21.53,.68-31.32-.14-1.53-.13-3.03-.6-4.54-.94-2.99-.67-5.97-1.39-8.97-2.02-.84-.17-1.11-.56-1.12-1.36-.06-5.19-.14-10.39-.22-15.58h.07Z"/><path class="cls-1" d="M90.88,38.66c-.34,0-.53,0-.72,0-1.35-.01-2.71-.02-4.06-.04-.33,0-.66-.05-.98-.12-.76-.16-1.09-.86-.68-1.55,1.09-1.85,2.17-3.71,3.33-5.51,1.63-2.53,3.31-5.02,5-7.5,.71-1.04,1.95-1.36,2.92-.78,.33,.2,.61,.52,.82,.85,2.74,4.19,5.45,8.4,8.21,12.58,.69,1.05-.02,2.04-1.15,2.05-1.57,0-3.14,.07-4.71,.1-.51,0-.76,.17-.87,.72-.49,2.33-.94,4.67-1.6,6.95-1.29,4.45-3.58,8.37-6.56,11.91-3.68,4.39-8.1,7.82-13.37,10.09-3.82,1.65-7.78,2.77-11.97,2.8-2.34,.02-4.68,.04-7.01-.14-3.38-.25-6.58-1.28-9.68-2.66-3.3-1.47-6.37-3.29-9.13-5.64-1.6-1.36-3.11-2.81-3.68-4.97-.81-3.05-.06-5.71,1.98-8.14,3.8,5.93,8.75,10.42,15.46,12.77,6.67,2.33,13.39,2.42,19.92-.21,10.57-4.26,16.5-12.32,18.51-23.57Z"/><path class="cls-2" d="M70.74,26.98c-.12,3.21-.97,6.53-3.7,9.1-2.65,2.51-5.48,2.64-8.33,.37-.75-.6-1.42-1.33-1.98-2.11-2.74-3.84-2.91-9.98-.55-13.8,2.97-4.82,10.43-4.74,13.15,.33,.79,1.47,1.39,3.75,1.41,6.11Z"/><path class="cls-2" d="M79.27,48.72c.05,.48-.33,.9-.81,.9h-2.94c-8.12,0-10.21,0-10.4,0-6,0-12,0-18.01,0-1,0-1.16-.14-1.07-1.15,.11-1.17,.23-2.35,.41-3.51,.21-1.34,1.2-2.42,2.5-2.82,2.56-.78,4.88-2.02,6.92-3.78,.44-.39,.84-.34,1.32,.01,3.61,2.64,7.32,2.66,10.87,.03,.61-.45,1.04-.34,1.55,.08,1.5,1.25,3.09,2.34,4.94,3.01,.7,.25,1.41,.49,2.12,.68,1.19,.33,1.94,1.09,2.14,2.28,.2,1.17,.32,2.87,.46,4.27Z"/></g></g></svg>