<?xml version="1.0" encoding="UTF-8"?><svg id="Capa_2" xmlns="http://www.w3.org/2000/svg" viewBox="0 0 137.11 122.19"><defs><style>.cls-1{fill:#febb2e;}.cls-2{fill:#8cd50a;}</style></defs><g id="Capa_1-2"><g><path class="cls-2" d="M101.63,0c-15.07,0-27.94,9.41-33.08,22.66C63.41,9.41,50.55,0,35.47,0,15.88,0,0,15.88,0,35.47c0,9.84,4.01,18.74,10.48,25.17h0l.03,.03c1.2,1.19,2.48,2.29,3.83,3.29l13.8,11.86,.06-1.95c.04-1.18,.07-2.35,.1-3.53,.07-2.75,.14-5.6,.3-8.42,.27-4.62,3.65-7.97,8.06-7.97,1.65,0,3.31,.5,4.8,1.45,2.64,1.68,3.9,4.37,3.74,7.99-.07,1.62-.13,3.27-.17,4.9l8.6-13.88,.4-.64,1.42-2.29,5.16-8.34c.54-.87,1.07-1.74,1.61-2.61,1.27-2.07,2.58-4.2,3.92-6.29,1.55-2.42,3.95-3.75,6.76-3.75,.48,0,.97,.04,1.46,.12,3.04,.48,5.29,2.27,6.4,5.08l.21-.34c1.64-2.65,4.16-4.12,7.07-4.12,.41,0,.83,.03,1.25,.08,2.78,.37,5.16,2.13,6.36,4.69,1.16,2.48,1.03,5.32-.33,7.66,.19-.01,.38-.02,.57-.02,.31,0,.62,.02,.93,.05,3.34,.33,5.91,2.39,7.05,5.65,1.3,3.71-.61,6.8-1.24,7.82-.69,1.11-1.38,2.22-2.07,3.34,.17-.01,.34-.02,.51-.02,2.47,0,4.8,1.06,6.38,2.91,2.36,2.77,2.61,6.63,.62,9.83-1.45,2.34-2.9,4.68-4.35,7.02l17.57-15.25c2.49-1.67,4.76-3.64,6.75-5.86h0c5.62-6.28,9.04-14.56,9.04-23.65C137.11,15.88,121.22,0,101.63,0Z"/><path class="cls-1" d="M56.62,56.21c-3.92,6.32-7.83,12.65-11.75,18.97-.16,.26-.32,.53-.5,.79-.4,.58-.91,.97-1.66,.73-.74-.24-.94-.84-.92-1.56,.11-3.68,.18-7.36,.35-11.04,.1-2.18-.37-4.04-2.33-5.27-3.68-2.34-7.92-.25-8.17,4.11-.23,3.95-.27,7.91-.4,11.87-.17,5.4-.33,10.8-.51,16.2-.06,1.68,.41,3.28,.82,4.87,1.7,6.57,4.51,12.6,9.29,17.5,6.96,7.15,15.27,10.45,25.27,8.01,5.38-1.31,9.74-4.39,13.48-8.4,1.48-1.59,2.81-3.3,3.95-5.15,7.31-11.8,14.62-23.59,21.92-35.39,1.3-2.1,1.15-4.48-.35-6.24-1.47-1.73-3.95-2.31-6.12-1.44-1.07,.43-1.81,1.22-2.4,2.18-2.92,4.72-5.84,9.43-8.76,14.14-.68,1.1-1.93,1.07-2.64-.05-.18-.28-.1-.53,.03-.77,.17-.3,.35-.59,.53-.89,4.75-7.67,9.5-15.34,14.25-23.01,1-1.61,1.61-3.31,.95-5.19-.73-2.09-2.23-3.39-4.47-3.62-2.18-.22-3.88,.67-5.05,2.55-4.28,6.91-8.56,13.82-12.84,20.73-.69,1.11-1.38,2.23-2.07,3.34-.71,1.14-.74,1.14-1.91,.42-1.16-.72-1.16-.73-.43-1.9,6.11-9.87,12.17-19.76,18.35-29.58,2.02-3.2,0-7.44-3.7-7.94-2.31-.31-4.09,.63-5.31,2.61-3.32,5.36-6.64,10.71-9.95,16.07-2.76,4.45-5.51,8.9-8.27,13.35-.71,1.14-.76,1.15-1.82,.49-1.11-.68-1.13-.76-.41-1.93,4.66-7.52,9.31-15.05,13.98-22.57,1-1.61,1.57-3.28,.94-5.19-.67-2.04-2.11-3.22-4.16-3.55-2.15-.34-3.98,.4-5.17,2.26-1.88,2.93-3.68,5.91-5.51,8.86-2.19,3.54-4.39,7.08-6.58,10.63Z"/></g></g></svg>