<?xml version="1.0" encoding="UTF-8"?><svg id="Capa_2" xmlns="http://www.w3.org/2000/svg" viewBox="0 0 91.38 82.98"><defs><style>.cls-1{fill:#fff;}</style></defs><g id="Capa_1-2"><g><path class="cls-1" d="M13.45,64.77c0-5.17,.03-10.34-.02-15.51-.01-1.28,.45-2.24,1.5-3.15,9.74-8.46,19.45-16.95,29.11-25.48,1.26-1.12,2-1.12,3.26,0,9.66,8.53,19.38,17.02,29.11,25.48,1.05,.91,1.5,1.87,1.49,3.15-.04,10.46-.01,20.92-.03,31.39,0,2.14-.2,2.3-2.71,2.31-6.46,.01-12.91-.04-19.37,.03-1.94,.02-2.61-.53-2.58-2.26,.11-4.99,0-9.99,.06-14.98,.02-1.44-.49-2.03-2.21-1.99-3.53,.09-7.07,.09-10.6,0-1.79-.05-2.43,.57-2.41,2.07,.04,5.05-.04,10.11,.05,15.16,.03,1.46-.45,2-2.16,1.99-6.66-.06-13.32-.07-19.98,0-2.01,.02-2.57-.7-2.54-2.34,.07-5.29,.03-10.58,.03-15.87Z"/><path class="cls-1" d="M0,39.88c.06-.96,.68-1.66,1.41-2.3,3.92-3.46,7.84-6.91,11.78-10.35,5.8-5.08,11.62-10.15,17.42-15.23,4.08-3.57,8.11-7.18,12.23-10.72,1.97-1.69,3.71-1.69,5.69,.03,13.81,12.04,27.59,24.1,41.36,36.18,2,1.76,1.96,2.92,.03,4.75-1.1,1.05-2.27,2.04-3.47,3.01-1.44,1.16-2.94,1.06-4.39-.01-.52-.38-.98-.82-1.46-1.24-11.05-9.66-22.13-19.3-33.11-29.02-1.5-1.33-2.28-1.2-3.69,.05-10.95,9.67-21.97,19.27-32.97,28.89-3.36,2.94-4.15,2.94-7.45,.05-.82-.71-1.64-1.42-2.43-2.16-.58-.53-.92-1.17-.94-1.92Z"/></g></g></svg>