<?xml version="1.0" encoding="UTF-8"?><svg id="Capa_2" xmlns="http://www.w3.org/2000/svg" viewBox="0 0 113.85 82.46"><defs><style>.cls-1{fill:#febb2e;}.cls-2{fill:#8cd50a;}</style></defs><g id="Capa_1-2"><g><path class="cls-2" d="M56.25,55.21C37.79,39.11,19.71,23.3,1.56,7.57-.28,5.98-.45,4.23,1.2,3.05,3.18,1.64,5.7,.15,7.99,.13,40.71-.05,73.44,.01,106.16,0c3.43,0,5.97,1.35,7.69,4.95-19.15,16.7-38.28,33.39-57.6,50.25Z"/><path class="cls-2" d="M77.88,45.95c11.61,10.12,23.08,20.05,34.4,30.15,.66,.59,.64,3.27,.06,3.67-1.83,1.23-4.09,2.57-6.19,2.58-32.73,.16-65.45,.11-98.18,.12-3.34,0-6.1-1.01-7.76-4.74,11.65-10.17,23.35-20.37,35.39-30.89,5.34,4.65,10.6,9.22,15.85,13.78,4.26,3.71,5.34,3.72,9.58,.03,5.58-4.85,11.14-9.71,16.86-14.7Z"/><path class="cls-1" d="M83.38,41.14c10.25-8.93,20.09-17.52,30.46-26.55v53.08c-10.37-9.04-20.32-17.7-30.46-26.53Z"/><path class="cls-1" d="M0,68.25V15.76c10.21,8.9,19.97,17.41,30.1,26.24C20.09,50.73,10.32,59.25,0,68.25Z"/></g></g></svg>