<?xml version="1.0" encoding="UTF-8"?><svg id="Capa_2" xmlns="http://www.w3.org/2000/svg" viewBox="0 0 100.23 117.94"><defs><style>.cls-1{fill:#febb2e;}.cls-2{fill:#8cd50a;}</style></defs><g id="Capa_1-2"><g><path class="cls-2" d="M10.24,36.01c2.05,1.14,3.24,3.55,3.19,6.44-.02,1.53-.06,3.06-.11,4.6-.09,3.55-.18,7.02-.1,10.42,.78-.56,1.71-.95,2.76-1.12,3.61-.57,7.23,1.64,8.43,5.15,.62,1.81,1.19,3.65,1.7,5.48,1.47,5.26,4.83,8.61,8.71,12.49,.85,.85,1.72,1.72,2.59,2.63,1.91,1.99,2.94,4.04,3.13,6.26,3.39,.82,6.92,1.26,10.56,1.26,3,0,5.92-.3,8.75-.86,.41-1.77,1.37-3.44,2.94-5.07,.87-.91,1.74-1.78,2.59-2.63,3.88-3.88,7.24-7.23,8.71-12.49,.52-1.84,1.09-3.69,1.7-5.48,1.2-3.51,4.82-5.73,8.43-5.15,1.05,.17,1.98,.55,2.76,1.12,.09-3.41,0-6.87-.1-10.42-.04-1.53-.08-3.07-.11-4.6-.05-2.9,1.15-5.3,3.19-6.44,1.62-.9,3.62-.88,5.34-.08C91.84,16.24,73.38,0,51.12,0S11.67,15.14,7.31,35.33c1.02-.04,2.03,.18,2.92,.67Z"/><path class="cls-2" d="M37.73,88.71c-.13-1.83-1.12-3.33-2.36-4.63-5.05-5.26-9.97-9.11-11.99-16.32-.5-1.79-1.05-3.57-1.65-5.33-1.47-4.3-8.17-4.69-8.24,.47-.1,6.57,2.17,15.28,6.92,20,.38,.38,.81,.77,.95,1.29s-.17,1.2-.71,1.22c-.34,.01-.63-.23-.87-.46-3.58-3.36-5.94-7.88-7.31-12.59-2.85-9.77-2.03-19.94-1.87-29.95,.02-1.5-.42-3.18-1.73-3.91-1.3-.72-3.04-.18-4,.97-1.7,2.03-1.71,6.41-2.2,8.95-.68,3.5-1.32,7-1.8,10.53-.93,6.8-1.33,13.8,.05,20.57,1.4,6.89,6.11,14.09,9.61,20.15,.55,.95,1.31,1.77,1.98,2.64,1.34,1.72,2.71,3.43,4.03,5.17v10.46h20.99v-19.85c.32-3.12,.46-6.25,.23-9.38Z"/><path class="cls-2" d="M99.38,60.54c-.48-3.53-1.13-7.03-1.8-10.53-.49-2.54-.5-6.93-2.2-8.95-.95-1.14-2.7-1.69-4-.97-1.31,.73-1.75,2.41-1.73,3.91,.16,10.01,.99,20.19-1.87,29.95-1.38,4.71-3.74,9.23-7.31,12.59-.25,.23-.54,.47-.87,.46-.54-.02-.85-.7-.71-1.22s.56-.91,.95-1.29c4.75-4.71,7.02-13.42,6.92-20-.07-5.16-6.78-4.77-8.24-.47-.6,1.76-1.15,3.54-1.65,5.33-2.02,7.21-6.94,11.06-11.99,16.32-1.24,1.3-2.23,2.8-2.36,4.63-.19,2.63-.12,5.26,.1,7.89l-.21-.09v19.85h20.99v-8.54c.11-.07,.23-.18,.34-.33,1.31-1.75,2.69-3.45,4.03-5.17,.68-.87,1.44-1.69,1.98-2.64,3.5-6.06,8.21-13.25,9.61-20.15,1.38-6.77,.97-13.77,.05-20.57Z"/><path class="cls-1" d="M51.12,0c-6.45,0-12.58,1.37-18.12,3.82,1.71,2.53,4.04,5.15,5.14,7.01,4.83,8.12,12.08,14.65,20.78,18.39,.59,.25,1.22,.5,1.87,.45,1.9-.14,2.67-2.63,2.32-4.51-.35-1.88-1.31-3.73-.92-5.6,.75-3.65,5.59-4.44,8.35-6.95,1.84-1.67,2.66-4.05,3.08-6.55-6.61-3.85-14.3-6.06-22.5-6.06Z"/><path class="cls-1" d="M81.12,11.55c-7.11,3.38-11.09,14.39-4.53,20.16,.7,.62,1.5,1.13,2.14,1.83,2.43,2.64,1.74,6.81,2.85,10.22,.88,2.69,2.92,4.87,5.36,6.34-.01-.49-.02-.97-.04-1.46-.04-1.53-.08-3.07-.11-4.6-.05-2.9,1.15-5.3,3.19-6.44,1.62-.9,3.62-.88,5.34-.08-1.68-10.24-6.84-19.31-14.21-25.97Z"/><path class="cls-1" d="M51.2,38.12c1.85,.09,3.69,.27,5.45,.94,4,1.52,7.06,5.17,8.12,9.32,2.31,9.03-4.33,21.9-11.82,26.82-10.18,6.69-13.34-5.65-16.32-12.89-2.74-6.66-6.57-13.23-8.51-20.18-1.8-6.48,.83-12.93,8.28-9.82,2.32,.97,3.8,3.61,6.22,4.63,2.71,1.15,5.66,1.04,8.57,1.18Z"/></g></g></svg>