<?xml version="1.0" encoding="UTF-8"?><svg id="Capa_2" xmlns="http://www.w3.org/2000/svg" viewBox="0 0 162.41 128.06"><defs><style>.cls-1{fill:#fff;}.cls-2{fill:#8cd50a;}</style></defs><g id="Capa_1-2"><path class="cls-1" d="M103.61,104.69c-1.24-3.75-2.48-7.52-3.72-11.28-1.65-5.01-3.34-10.01-4.95-15.03-.86-2.67,.08-5.25,2.29-6.64,2.1-1.32,4.93-1.16,6.71,.58,.77,.75,1.37,1.79,1.74,2.81,1.18,3.27,2.27,6.58,3.29,9.9,.31,1.02,.76,1.27,1.8,1.16,7.1-.74,14.12-.25,21.1,1.22,1.96,.41,3.18,1.31,3.78,3.3,1.7,5.64,3.9,11.15,5.22,16.87,1.73,7.47-2.65,15.2-9.73,18.31-7.84,3.44-15.27,2.86-22.29-2.21-7.51-5.42-15.06-10.78-22.6-16.17-1.33-.95-1.45-1.79-.31-3.06,2.9-3.24,6.61-3.68,10.5-2.62,2.4,.65,4.65,1.85,7.16,2.88Z"/><path class="cls-2" d="M101.34,24.86c-.29,7.99-2.43,16.26-9.21,22.67-6.6,6.24-13.64,6.58-20.74,.92-1.86-1.48-3.53-3.32-4.92-5.26-6.83-9.57-7.24-24.86-1.38-34.36,7.4-11.99,25.98-11.81,32.74,.81,1.96,3.65,3.46,9.33,3.51,15.22Z"/><path class="cls-2" d="M122.84,79.27h-8.83c-.72-2.14-1.4-4.21-2.11-6.28-2.29-6.65-8.85-10.15-15.24-8.14-6.53,2.05-9.92,8.59-8.02,15.44,.06,.21,.11,.42,.2,.79-.55,.05-1.02,.12-1.49,.12-14.95,0-29.89,0-44.84,0-2.49,0-2.9-.34-2.67-2.86,.3-3.35,.66-6.7,1.22-10.01,.47-2.77,2.24-4.67,4.95-5.44,6.81-1.93,12.93-5.09,18.29-9.73,1.11-.96,2.08-.85,3.29,.03,8.98,6.57,18.23,6.61,27.08,.08,1.53-1.13,2.59-.86,3.85,.19,3.73,3.11,7.7,5.84,12.31,7.51,1.74,.63,3.5,1.21,5.29,1.7,2.95,.82,4.82,2.71,5.32,5.68,.6,3.57,.93,7.18,1.4,10.91Z"/><path class="cls-2" d="M17.89,20.42c.13-3.82,.73-7.51,2.37-10.97C23,3.7,27.47,.38,33.92,.06c6.68-.34,11.75,2.42,15.08,8.23,5.19,9.07,3.59,22.88-3.52,30.54-.83,.9-1.77,1.73-2.76,2.46-5.43,4.01-10.38,3.99-15.73-.13-4.94-3.8-7.33-9.1-8.46-15.05-.35-1.87-.43-3.78-.64-5.68Z"/><path class="cls-2" d="M144.4,21.87c-.1,5.4-1.76,11.79-6.52,16.96-1.56,1.69-3.55,3.13-5.6,4.2-5.27,2.75-9.86,.76-13.86-2.79-5.89-5.24-8-12.15-8-19.81,0-4.39,.91-8.59,3.17-12.41C116.96,2.31,122.04-.31,128.63,.07c6.31,.36,10.71,3.61,13.43,9.21,1.7,3.5,2.32,7.24,2.33,12.59Z"/><path class="cls-2" d="M126.81,68.5c-.16-.46-.29-.77-.37-1.1-1.17-5.15-4.35-8.35-9.42-9.73-4.26-1.16-8.3-2.78-11.87-5.44-.45-.33-.88-.68-1.18-.91,3.21-2.23,6.4-4.46,9.6-6.69,.91-.64,1.63-.29,2.43,.3,3.32,2.47,6.98,4.03,11.19,4.11,4.35,.08,8.16-1.41,11.55-3.99,1.22-.93,2.17-.92,3.27,.03,4.41,3.81,9.43,6.44,15.08,7.89,2.42,.62,3.93,2.26,4.31,4.67,.48,3.04,.71,6.13,.99,9.2,.14,1.53-.9,1.68-2.09,1.68-6.41-.02-12.81,0-19.22,0-4.72,0-9.43,0-14.28,0Z"/><path class="cls-2" d="M58.45,51.31c-2.86,2.32-6.12,4.13-9.73,5.33-1.01,.34-2.02,.69-3.05,.95-5.29,1.37-8.59,4.64-9.75,10.02-.06,.27-.2,.52-.32,.83-.45,.02-.89,.06-1.34,.06-10.62,0-21.24,0-31.86,0-2.24,0-2.53-.21-2.37-2.39,.2-2.74,.48-5.48,.89-8.19,.4-2.63,1.95-4.36,4.58-5.03,5.49-1.39,10.38-3.94,14.65-7.64,1.25-1.08,2.26-1.14,3.68-.1,7.18,5.25,15.05,5.22,22.32-.07,1.31-.95,2.19-.86,3.41,.03,2.89,2.11,5.86,4.1,8.88,6.19Z"/></g></svg>