<?xml version="1.0" encoding="UTF-8"?><svg id="Capa_2" xmlns="http://www.w3.org/2000/svg" viewBox="0 0 159.47 124.56"><defs><style>.cls-1{fill:#febb2e;}.cls-2{fill:#8cd50a;}</style></defs><g id="Capa_1-2"><g><path class="cls-2" d="M58.45,69.53c0,7.06,0,14.13,0,21.19,0,.29,0,.59,0,.88-.03,.67-.25,1.24-.97,1.41-.71,.17-1.18-.21-1.52-.8-1.75-3.03-3.53-6.04-5.24-9.09-1.01-1.8-2.32-3.07-4.51-3.1-4.14-.05-6.52,3.76-4.54,7.41,1.79,3.3,3.73,6.52,5.61,9.78,2.56,4.44,5.14,8.88,7.69,13.33,.8,1.39,1.97,2.44,3.1,3.52,4.66,4.45,9.94,7.91,16.25,9.49,9.19,2.29,17.55,.81,24.41-6.17,3.69-3.75,5.67-8.41,6.69-13.52,.4-2.03,.62-4.07,.62-6.14,0-13.18,0-26.35,0-39.53,0-2.35-1.31-4.19-3.4-4.86-2.05-.66-4.35,.11-5.66,1.9-.65,.88-.85,1.89-.85,2.96,0,5.26,0,10.53,0,15.79,0,1.22-1.03,1.83-2.15,1.28-.28-.14-.35-.37-.36-.64-.01-.33-.01-.65-.01-.98,0-8.57,0-17.13,0-25.7,0-1.8-.35-3.48-1.82-4.67-1.64-1.32-3.49-1.63-5.42-.69-1.87,.92-2.8,2.48-2.8,4.58,0,7.72,0,15.43,0,23.15,0,1.24,0,2.49,0,3.73,0,1.27-.03,1.29-1.33,1.29-1.29,0-1.3,0-1.3-1.32,0-11.02-.06-22.04,.03-33.06,.03-3.59-3.73-6.01-6.96-4.56-2.02,.91-2.99,2.55-2.99,4.76,0,5.98,0,11.97,0,17.95,0,4.97,0,9.94,0,14.91,0,1.27-.04,1.3-1.22,1.31-1.24,0-1.29-.05-1.29-1.35,0-8.4,0-16.81,0-25.21,0-1.8-.37-3.43-1.83-4.66-1.56-1.32-3.32-1.55-5.13-.78-1.9,.8-3.01,2.31-3.04,4.41-.05,3.3-.02,6.6-.02,9.91,0,3.96,0,7.91,0,11.87Z"/><path class="cls-1" d="M157.2,21.07c-3.52-8.8-9.62-14.7-19.28-16.19-5.2-.8-10.14,.33-14.88,2.49-1.88,.86-3.66,1.88-5.34,3.09-10.69,7.71-21.37,15.42-32.06,23.13-.15,.11-.28,.23-.42,.35,.41,.53,.77,1.09,1.07,1.68,.75-.15,1.5-.23,2.26-.23,2.63,0,5.18,.94,7.37,2.71,.06,.05,.12,.11,.18,.16,2.71-1.96,5.42-3.92,8.14-5.87,.99-.72,2.08-.24,2.3,1,.05,.31-.1,.5-.31,.67-.26,.2-.52,.39-.79,.59-2.53,1.82-5.06,3.65-7.59,5.47,1.32,1.76,2.1,3.88,2.31,6.38,.31-.03,.63-.04,.94-.04,1.2,0,2.39,.19,3.52,.55,.19,.06,.37,.13,.55,.2,1.15-.83,2.29-1.65,3.44-2.48,1.01-.73,2.01-1.46,3.02-2.18,1.04-.74,1.06-.74,1.83,.33,.76,1.05,.76,1.06-.31,1.83-1.79,1.29-3.58,2.59-5.37,3.88,2.8,1.97,4.57,5.12,4.82,8.74,2.12-1.53,4.24-3.06,6.36-4.59,1.03-.74,1.08-.73,1.78,.23,.73,1,.72,1.08-.34,1.84-2.59,1.87-5.17,3.73-7.76,5.6,0,4.12,0,8.24,0,12.37,.13-.09,.25-.18,.38-.28,3.21-2.32,6.42-4.63,9.62-6.95,5.73-4.13,11.45-8.27,17.18-12.4,.24-.17,.47-.35,.72-.51,.56-.37,1.15-.52,1.72-.04,.56,.48,.52,1.08,.25,1.7-1.43,3.19-2.83,6.4-4.3,9.57-.87,1.87-1.13,3.68,.13,5.47,2.39,3.39,6.86,3.09,8.66-.65,1.63-3.39,3.1-6.85,4.65-10.28,2.1-4.68,4.2-9.36,6.31-14.04,.66-1.46,.83-3.02,1.04-4.57,.88-6.38,.6-12.69-1.82-18.73Z"/><path class="cls-1" d="M46.11,73.38h.15c1.15,.01,2.48,.2,3.85,.7,.75-1.21,1-2.74,.57-4.19-.31-1.05-.98-1.82-1.84-2.47-4.18-3.2-8.36-6.4-12.54-9.6-.97-.74-.83-1.93,.29-2.49,.28-.14,.51-.05,.73,.11,.27,.19,.53,.39,.79,.58,4.56,3.49,9.12,6.99,13.68,10.48v-8.85c0-.97,0-1.93,0-2.9,0-.3,0-.61,0-.91-1.64-1.26-3.29-2.52-4.94-3.78-.99-.76-1.97-1.51-2.96-2.27-1.01-.78-1.01-.81-.21-1.85,.79-1.03,.79-1.03,1.84-.23,2.09,1.6,4.18,3.19,6.27,4.79,0-.96,0-1.92,.02-2.88,.05-2.86,1.06-5.43,2.83-7.41-1.04-.79-2.07-1.59-3.11-2.38-1.01-.77-1.01-.82-.29-1.77,.75-.98,.82-1,1.86-.2,1.15,.88,2.3,1.76,3.45,2.64,.72-.51,1.51-.95,2.37-1.32,1.51-.63,3.05-.95,4.6-.95,.58,0,1.16,.05,1.72,.14,.4-.96,.92-1.84,1.56-2.64-1.35-1.04-2.71-2.07-4.06-3.11-5.61-4.29-11.22-8.59-16.82-12.88-.23-.18-.47-.35-.7-.54-.51-.43-.83-.95-.53-1.63,.3-.67,.89-.81,1.56-.73,3.47,.45,6.94,.87,10.4,1.36,2.05,.29,3.85,.02,5.2-1.7,2.56-3.26,.98-7.46-3.12-8.11-3.71-.59-7.45-1-11.18-1.49-5.09-.67-10.18-1.32-15.26-2-1.59-.21-3.13,.08-4.68,.32-6.37,.99-12.33,3.08-17.41,7.13C2.8,16.28-1.1,23.82,.27,33.51c.73,5.21,3.23,9.62,6.67,13.53,1.36,1.55,2.86,2.96,4.5,4.22,10.01,7.67,20.03,15.34,30.04,23,1.43-.57,2.99-.87,4.63-.87Z"/><path class="cls-2" d="M77.7,23.31c-1.57,0-2.85-1.28-2.85-2.85V2.85c0-1.57,1.28-2.85,2.85-2.85s2.85,1.28,2.85,2.85V20.47c0,1.57-1.28,2.85-2.85,2.85Z"/><path class="cls-2" d="M86.85,24.22c-.29,0-.59-.05-.89-.14-1.49-.49-2.31-2.1-1.82-3.59l5.49-16.74c.49-1.49,2.1-2.31,3.59-1.82,1.49,.49,2.31,2.1,1.82,3.59l-5.49,16.74c-.39,1.2-1.51,1.96-2.71,1.96Z"/><path class="cls-2" d="M134.55,92.84c-.5,0-1.01-.13-1.46-.41l-15.1-9.07c-1.35-.81-1.79-2.56-.98-3.91,.81-1.35,2.56-1.79,3.91-.98l15.1,9.07c1.35,.81,1.79,2.56,.98,3.91-.54,.89-1.48,1.38-2.45,1.38Z"/><path class="cls-2" d="M125.49,104.47c-.8,0-1.59-.33-2.16-.98l-11.53-13.32c-1.03-1.19-.9-2.99,.29-4.02,1.19-1.03,2.99-.9,4.02,.29l11.53,13.32c1.03,1.19,.9,2.99-.29,4.02-.54,.47-1.2,.69-1.86,.69Z"/><path class="cls-2" d="M17.08,97.72c-1.06,0-2.09-.6-2.57-1.63-.68-1.42-.07-3.12,1.35-3.8l15.91-7.57c1.42-.68,3.12-.07,3.8,1.35,.68,1.42,.07,3.12-1.35,3.8l-15.91,7.57c-.4,.19-.81,.28-1.22,.28Z"/><path class="cls-2" d="M12.4,83.73c-1.41,0-2.64-1.05-2.82-2.49-.2-1.56,.9-2.99,2.46-3.19l17.48-2.23c1.57-.2,2.99,.9,3.19,2.46s-.9,2.99-2.46,3.19l-17.48,2.23c-.12,.02-.24,.02-.37,.02Z"/></g></g></svg>