<?xml version="1.0" encoding="UTF-8"?><svg id="Capa_2" xmlns="http://www.w3.org/2000/svg" viewBox="0 0 240.15 260"><defs><style>.cls-1{fill:#fff;}.cls-2{opacity:0;}</style></defs><g id="Capa_1-2"><g><g><path class="cls-1" d="M188.28,187.58c-7.76,0-15.52-.06-23.28,.04-2.41,.03-3.29-.65-2.98-3.22,.84-6.84-2.05-12.41-6.73-17.06-2.58-2.56-3.71-4.62-1.29-8.12,2.21-3.21,2.02-6.9-1.02-9.87-.97-.95-1.02-1.66-.43-2.83,2.49-4.91,1.54-9.22-2.68-12.72-4.51-3.74-4.48-4.98,.03-8.78,1.59-1.33,3.1-2.76,4.57-4.23,4.64-4.67,4.75-9.81,.47-14.87-2.95-3.5-6.86-5.73-10.6-8.17-7.23-4.71-14.46-9.45-21.84-13.92-3.6-2.18-5.15-5.48-6.4-9.15-4.69-13.78-11.23-26.55-20.78-37.63-2.07-2.4-2.49-4.29-.7-7.16,4.56-7.32,8.7-14.91,13.11-22.33,5.98-10.07,18.56-10.1,24.49,.05,10.7,18.3,21.23,36.7,31.85,55.05,17.89,30.93,35.8,61.85,53.69,92.78,2.03,3.5,4.08,6.98,6.07,10.5,5.79,10.24-.49,21.4-12.27,21.62-7.76,.15-15.52,.03-23.28,.03v-.02Z"/><g class="cls-2"><path class="cls-1" d="M133.27,187.55c-7.11,0-14.21-.05-21.32,.03-2.44,.03-3.73-.71-3.57-3.35,.23-3.79-1.78-6.73-4.11-9.37-1.52-1.72-2.06-3.22-.75-5.23,.78-1.2,.84-2.61-.05-3.79-.49-.65-1.12-1.14-1.72-1.69-.48-.44-.93-.97-1.07-1.61-.26-1.19,.64-2.35,1.12-3.39,.52-1.13,1.03-2.45,.72-3.71-.33-1.38-1.54-2.08-2.55-2.9-1.68-1.37-1.58-2.73,0-4.08,.58-.5,1.21-.94,1.8-1.42,5.36-4.4,5.49-9.53,.18-14.06-3.84-3.27-8.37-5.56-12.56-8.32-1.46-.96-2.9-1.98-4.44-2.79-3.62-1.89-5.52-4.87-6.84-8.72-3.03-8.87-7.96-16.77-13.91-23.97-2.03-2.45-2.24-4.25-.48-7.12,8.69-14.16,17.13-28.47,25.53-42.8,1.42-2.42,2.23-2.32,3.89-.29,8.94,10.98,15.54,23.22,20,36.63,1.64,4.93,4.15,8.9,8.81,11.7,8.62,5.17,16.97,10.79,25.44,16.2,2.14,1.37,4.02,3.04,5.57,5.03,2.89,3.72,2.63,6.87-.77,10.16-1.88,1.82-3.84,3.57-5.71,5.42-4.63,4.6-4.45,7.56,.61,11.58,.93,.74,1.94,1.5,2.59,2.47,1.95,2.87,1.58,5.31-.99,7.87-2.26,2.26-2.03,3.96,.72,5.28,3.06,1.46,3.6,3.39,1.83,6.57-3,5.39-2.84,6.24,1.31,10.83,3.64,4.03,6.79,8.31,6.39,14.22-.27,3.88-.85,4.59-4.67,4.6-7,.02-13.99,0-20.99,0Z"/></g><path class="cls-1" d="M65.03,187.58c-12.02,0-24.04,.05-36.07-.02-8.12-.05-13.43-4.28-14.9-11.56-.66-3.28,.01-6.33,1.61-9.16,14.22-25.22,28.49-50.41,42.7-75.64,1.31-2.33,2.37-1.7,3.58-.09,5.59,7.46,10.71,15.21,13.64,24.15,1.18,3.6,3,6.38,6.34,8.34,4.71,2.76,9.24,5.83,13.83,8.79,1.19,.77,2.41,1.52,3.5,2.42,4.53,3.73,4.58,6.11,.27,10.04-.81,.74-1.71,1.38-2.46,2.17-2.42,2.56-2.3,4.97,.32,7.36,3.42,3.13,3.51,3.49,.95,7.22-1.15,1.68-.4,2.64,1.03,3.41,1.92,1.03,1.99,2.41,.9,4.07-1.71,2.6-1.32,4.88,.88,7.03,1.9,1.85,3.44,3.96,4.04,6.62,.83,3.69-.03,4.86-3.8,4.87-12.13,.03-24.26,0-36.39,0v-.02Z"/></g><g><polygon class="cls-1" points="0 202.17 0 215.82 7.58 215.82 7.58 259.75 20.96 259.75 20.96 215.82 21.21 215.82 28.37 215.82 28.37 202.17 0 202.17"/><path class="cls-1" d="M77.18,216.31H38.16v30.08h-1.6v-30.08h-13.33v29.54c0,7.81,6.34,14.15,14.15,14.15h0c7.74,0,14.05-6.22,14.15-13.96l.21-16.23h25.43v15.99h-1.52v-14.58h0c-7.53,0-13.64,6.11-13.64,13.64v.76c0,7.53,6.11,13.64,13.64,13.64h1.26c7.53,0,13.64-6.11,13.64-13.64v-15.91c0-7.39-5.99-13.38-13.38-13.38Z"/><path class="cls-1" d="M211.82,229.63h14.94v15.99h-1.52v-14.58h0c-7.53,0-13.64,6.11-13.64,13.64v.76c0,7.53,6.11,13.64,13.64,13.64h1.26c7.53,0,13.64-6.11,13.64-13.64v-15.91c0-7.39-5.99-13.38-13.38-13.38h-14.81l-.13,13.5Z"/><path class="cls-1" d="M122.67,229.63h14.94v15.99h-1.52v-14.58h0c-7.53,0-13.64,6.11-13.64,13.64v.76c0,7.53,6.11,13.64,13.64,13.64h1.26c7.53,0,13.64-6.11,13.64-13.64v-15.91c0-7.39-5.99-13.38-13.38-13.38h-14.81l-.13,13.5Z"/><rect class="cls-1" x="92.33" y="201.66" width="13.39" height="57.58"/><g><rect class="cls-1" x="107.73" y="216.06" width="13.39" height="43.19"/><rect class="cls-1" x="107.73" y="201.66" width="13.39" height="12.88"/></g><path class="cls-1" d="M166.95,216.06h0c-7.74,0-14.02,6.28-14.02,14.02v29.17h13.13v-30.05h1.52v30.05h13.39v-29.17c0-7.74-6.28-14.02-14.02-14.02Z"/><path class="cls-1" d="M182.74,216.14v13.3h14.4v1.77s-6.31,0-10.35,4.04c-3.11,3.11-3.83,6.82-3.99,8.36l-.05,5.59v10.04h27.78v-13.3h-14.4v-1.77s6.31,0,10.35-4.04c3.11-3.11,3.83-6.82,3.99-8.36l.04-5.58h.01v-10.05h-27.78Z"/></g></g></g></svg>