<?xml version="1.0" encoding="UTF-8"?><svg id="Capa_2" xmlns="http://www.w3.org/2000/svg" viewBox="0 0 91.91 92.06"><defs><style>.cls-1{fill:#fff;}</style></defs><g id="Capa_1-2"><g><path class="cls-1" d="M60,10.29c-13.73-13.73-35.98-13.73-49.71,0-13.73,13.73-13.73,35.98,0,49.71,12.35,12.35,31.6,13.58,45.34,3.71l24.07,26.55c2.19,2.42,5.99,2.41,8.16-.02l2.64-2.95c2.02-2.25,1.84-5.72-.4-7.75l-26.41-23.9c9.89-13.74,8.66-33-3.7-45.35Zm-7.03,42.67c-9.84,9.84-25.8,9.84-35.64,0s-9.84-25.8,0-35.64c9.84-9.84,25.8-9.84,35.64,0s9.84,25.8,0,35.64Z"/><path class="cls-1" d="M43.24,26.82c-.12,3.21-.97,6.53-3.7,9.1-2.65,2.51-5.48,2.64-8.33,.37-.75-.6-1.42-1.33-1.98-2.11-2.74-3.84-2.91-9.98-.55-13.8,2.97-4.82,10.43-4.74,13.15,.33,.79,1.47,1.39,3.75,1.41,6.11Z"/><path class="cls-1" d="M51.77,48.56c.05,.48-.33,.9-.81,.9h-2.94c-8.12,0-10.21,0-10.4,0-6,0-12,0-18.01,0-1,0-1.16-.14-1.07-1.15,.11-1.17,.23-2.35,.41-3.51,.21-1.34,1.2-2.42,2.5-2.82,2.56-.78,4.88-2.02,6.92-3.78,.44-.39,.84-.34,1.32,.01,3.61,2.64,7.32,2.66,10.87,.03,.61-.45,1.04-.34,1.55,.08,1.5,1.25,3.09,2.34,4.94,3.01,.7,.25,1.41,.49,2.12,.68,1.19,.33,1.94,1.09,2.14,2.28,.2,1.17,.32,2.87,.46,4.27Z"/></g></g></svg>